<svg width="1212" height="324" viewBox="0 0 1212 324" fill="none" xmlns="http://www.w3.org/2000/svg">
<path d="M103.846 288.969C109.346 253.803 97.3458 184.769 7.34583 191.969C13.8458 215.636 42.6458 268.569 103.846 288.969Z" fill="#014DFF"/>
<path d="M2.84582 118.969C-3.95418 155.369 3.01249 182.802 7.34582 191.969C96.1458 185.169 108.679 253.802 103.846 288.969C127.046 296.569 163.179 294.136 178.346 291.969C188.346 220.969 153.679 177.969 138.846 164.469C93.2458 112.069 29.1792 113.136 2.84582 118.969Z" fill="#196FFF"/>
<path d="M169.846 292.969C173.446 292.569 176.679 292.136 177.846 291.969C195.046 198.369 122.679 144.302 84.3458 128.969C173.546 175.769 178.512 257.802 169.846 292.969Z" fill="#1353BF"/>
<path d="M56.3458 30.9691C22.3458 54.5691 6.51249 99.4691 2.84583 118.969C74.0458 109.369 123.512 147.636 139.346 167.969C189.746 221.969 181.679 289.802 171.346 316.969C169.746 324.169 174.012 323.969 176.346 322.969C221.146 306.169 254.012 267.969 264.846 250.969C255.246 170.969 230.846 139.313 206.346 108.969C162.746 54.9691 87.6792 34.8024 56.3458 30.9691Z" fill="#3590FE"/>
<path d="M256.846 47.4691C179.646 -29.7309 90.8458 4.30248 56.3458 30.9691C125.946 44.5691 175.179 79.3025 190.846 94.9691C239.646 132.969 260.346 214.969 264.846 250.969C320.846 149.369 283.012 72.8025 256.846 47.4691Z" fill="#4DB3FF"/>
<path d="M428.943 94.2614C428.67 91.5114 427.5 89.375 425.432 87.8523C423.364 86.3295 420.557 85.5682 417.011 85.5682C414.602 85.5682 412.568 85.9091 410.909 86.5909C409.25 87.25 407.977 88.1705 407.091 89.3523C406.227 90.5341 405.795 91.875 405.795 93.375C405.75 94.625 406.011 95.7159 406.58 96.6477C407.17 97.5795 407.977 98.3864 409 99.0682C410.023 99.7273 411.205 100.307 412.545 100.807C413.886 101.284 415.318 101.693 416.841 102.034L423.114 103.534C426.159 104.216 428.955 105.125 431.5 106.261C434.045 107.398 436.25 108.795 438.114 110.455C439.977 112.114 441.42 114.068 442.443 116.318C443.489 118.568 444.023 121.148 444.045 124.057C444.023 128.33 442.932 132.034 440.773 135.17C438.636 138.284 435.545 140.705 431.5 142.432C427.477 144.136 422.625 144.989 416.943 144.989C411.307 144.989 406.398 144.125 402.216 142.398C398.057 140.67 394.807 138.114 392.466 134.727C390.148 131.318 388.932 127.102 388.818 122.08H403.102C403.261 124.42 403.932 126.375 405.114 127.943C406.318 129.489 407.92 130.659 409.92 131.455C411.943 132.227 414.227 132.614 416.773 132.614C419.273 132.614 421.443 132.25 423.284 131.523C425.148 130.795 426.591 129.784 427.614 128.489C428.636 127.193 429.148 125.705 429.148 124.023C429.148 122.455 428.682 121.136 427.75 120.068C426.841 119 425.5 118.091 423.727 117.341C421.977 116.591 419.83 115.909 417.284 115.295L409.682 113.386C403.795 111.955 399.148 109.716 395.739 106.67C392.33 103.625 390.636 99.5227 390.659 94.3636C390.636 90.1364 391.761 86.4432 394.034 83.2841C396.33 80.125 399.477 77.6591 403.477 75.8864C407.477 74.1136 412.023 73.2273 417.114 73.2273C422.295 73.2273 426.818 74.1136 430.682 75.8864C434.568 77.6591 437.591 80.125 439.75 83.2841C441.909 86.4432 443.023 90.1023 443.091 94.2614H428.943ZM453.974 74.1818H472.179L491.406 121.091H492.224L511.452 74.1818H529.656V144H515.338V98.5568H514.759L496.69 143.659H486.94L468.872 98.3864H468.293V144H453.974V74.1818ZM553.852 144H538.034L562.136 74.1818H581.159L605.227 144H589.409L571.92 90.1364H571.375L553.852 144ZM552.864 116.557H590.227V128.08H552.864V116.557ZM613.631 144V74.1818H641.176C646.449 74.1818 650.949 75.125 654.676 77.0114C658.426 78.875 661.278 81.5227 663.233 84.9545C665.21 88.3636 666.199 92.375 666.199 96.9886C666.199 101.625 665.199 105.614 663.199 108.955C661.199 112.273 658.301 114.818 654.506 116.591C650.733 118.364 646.165 119.25 640.801 119.25H622.358V107.386H638.415C641.233 107.386 643.574 107 645.438 106.227C647.301 105.455 648.688 104.295 649.597 102.75C650.528 101.205 650.994 99.2841 650.994 96.9886C650.994 94.6705 650.528 92.7159 649.597 91.125C648.688 89.5341 647.29 88.3295 645.403 87.5114C643.54 86.6705 641.188 86.25 638.347 86.25H628.392V144H613.631ZM651.335 112.227L668.688 144H652.392L635.415 112.227H651.335ZM673.972 86.3523V74.1818H731.312V86.3523H709.938V144H695.347V86.3523H673.972ZM824.577 98.625H809.645C809.372 96.6932 808.815 94.9773 807.974 93.4773C807.134 91.9545 806.054 90.6591 804.736 89.5909C803.418 88.5227 801.895 87.7045 800.168 87.1364C798.463 86.5682 796.611 86.2841 794.611 86.2841C790.997 86.2841 787.849 87.1818 785.168 88.9773C782.486 90.75 780.406 93.3409 778.929 96.75C777.452 100.136 776.713 104.25 776.713 109.091C776.713 114.068 777.452 118.25 778.929 121.636C780.429 125.023 782.52 127.58 785.202 129.307C787.884 131.034 790.986 131.898 794.509 131.898C796.486 131.898 798.315 131.636 799.997 131.114C801.702 130.591 803.213 129.83 804.531 128.83C805.849 127.807 806.94 126.568 807.804 125.114C808.69 123.659 809.304 122 809.645 120.136L824.577 120.205C824.19 123.409 823.224 126.5 821.679 129.477C820.156 132.432 818.099 135.08 815.509 137.42C812.94 139.739 809.872 141.58 806.304 142.943C802.759 144.284 798.747 144.955 794.27 144.955C788.043 144.955 782.474 143.545 777.565 140.727C772.679 137.909 768.815 133.83 765.974 128.489C763.156 123.148 761.747 116.682 761.747 109.091C761.747 101.477 763.179 95 766.043 89.6591C768.906 84.3182 772.793 80.25 777.702 77.4545C782.611 74.6364 788.134 73.2273 794.27 73.2273C798.315 73.2273 802.065 73.7955 805.52 74.9318C808.997 76.0682 812.077 77.7273 814.759 79.9091C817.44 82.0682 819.622 84.7159 821.304 87.8523C823.009 90.9886 824.099 94.5795 824.577 98.625ZM835.162 144V74.1818H882.207V86.3523H849.923V102.989H879.787V115.159H849.923V131.83H882.344V144H835.162ZM952.341 74.1818V144H939.591L909.216 100.057H908.705V144H893.943V74.1818H906.898L937.034 118.091H937.648V74.1818H952.341ZM961.878 86.3523V74.1818H1019.22V86.3523H997.844V144H983.253V86.3523H961.878ZM1028.66 144V74.1818H1056.21C1061.48 74.1818 1065.98 75.125 1069.71 77.0114C1073.46 78.875 1076.31 81.5227 1078.26 84.9545C1080.24 88.3636 1081.23 92.375 1081.23 96.9886C1081.23 101.625 1080.23 105.614 1078.23 108.955C1076.23 112.273 1073.33 114.818 1069.54 116.591C1065.76 118.364 1061.2 119.25 1055.83 119.25H1037.39V107.386H1053.45C1056.26 107.386 1058.61 107 1060.47 106.227C1062.33 105.455 1063.72 104.295 1064.63 102.75C1065.56 101.205 1066.03 99.2841 1066.03 96.9886C1066.03 94.6705 1065.56 92.7159 1064.63 91.125C1063.72 89.5341 1062.32 88.3295 1060.43 87.5114C1058.57 86.6705 1056.22 86.25 1053.38 86.25H1043.42V144H1028.66ZM1066.37 112.227L1083.72 144H1067.42L1050.45 112.227H1066.37ZM1103.7 144H1087.88L1111.98 74.1818H1131L1155.07 144H1139.25L1121.76 90.1364H1121.22L1103.7 144ZM1102.71 116.557H1140.07V128.08H1102.71V116.557ZM1163.47 144V74.1818H1178.24V131.83H1208.17V144H1163.47ZM431.636 192.636C431.227 189.182 429.568 186.5 426.659 184.591C423.75 182.682 420.182 181.727 415.955 181.727C412.864 181.727 410.159 182.227 407.841 183.227C405.545 184.227 403.75 185.602 402.455 187.352C401.182 189.102 400.545 191.091 400.545 193.318C400.545 195.182 400.989 196.784 401.875 198.125C402.784 199.443 403.943 200.545 405.352 201.432C406.761 202.295 408.239 203.011 409.784 203.58C411.33 204.125 412.75 204.568 414.045 204.909L421.136 206.818C422.955 207.295 424.977 207.955 427.205 208.795C429.455 209.636 431.602 210.784 433.648 212.239C435.716 213.67 437.42 215.511 438.761 217.761C440.102 220.011 440.773 222.773 440.773 226.045C440.773 229.818 439.784 233.227 437.807 236.273C435.852 239.318 432.989 241.739 429.216 243.534C425.466 245.33 420.909 246.227 415.545 246.227C410.545 246.227 406.216 245.42 402.557 243.807C398.92 242.193 396.057 239.943 393.966 237.057C391.898 234.17 390.727 230.818 390.455 227H399.182C399.409 229.636 400.295 231.818 401.841 233.545C403.409 235.25 405.386 236.523 407.773 237.364C410.182 238.182 412.773 238.591 415.545 238.591C418.773 238.591 421.67 238.068 424.239 237.023C426.807 235.955 428.841 234.477 430.341 232.591C431.841 230.682 432.591 228.455 432.591 225.909C432.591 223.591 431.943 221.705 430.648 220.25C429.352 218.795 427.648 217.614 425.534 216.705C423.42 215.795 421.136 215 418.682 214.318L410.091 211.864C404.636 210.295 400.318 208.057 397.136 205.148C393.955 202.239 392.364 198.432 392.364 193.727C392.364 189.818 393.42 186.409 395.534 183.5C397.67 180.568 400.534 178.295 404.125 176.682C407.739 175.045 411.773 174.227 416.227 174.227C420.727 174.227 424.727 175.034 428.227 176.648C431.727 178.239 434.5 180.42 436.545 183.193C438.614 185.966 439.705 189.114 439.818 192.636H431.636ZM560.622 210.091C560.622 217.455 559.293 223.818 556.634 229.182C553.975 234.545 550.327 238.682 545.691 241.591C541.054 244.5 535.759 245.955 529.804 245.955C523.85 245.955 518.554 244.5 513.918 241.591C509.281 238.682 505.634 234.545 502.975 229.182C500.316 223.818 498.986 217.455 498.986 210.091C498.986 202.727 500.316 196.364 502.975 191C505.634 185.636 509.281 181.5 513.918 178.591C518.554 175.682 523.85 174.227 529.804 174.227C535.759 174.227 541.054 175.682 545.691 178.591C550.327 181.5 553.975 185.636 556.634 191C559.293 196.364 560.622 202.727 560.622 210.091ZM552.441 210.091C552.441 204.045 551.429 198.943 549.406 194.784C547.406 190.625 544.691 187.477 541.259 185.341C537.85 183.205 534.031 182.136 529.804 182.136C525.577 182.136 521.747 183.205 518.316 185.341C514.906 187.477 512.191 190.625 510.168 194.784C508.168 198.943 507.168 204.045 507.168 210.091C507.168 216.136 508.168 221.239 510.168 225.398C512.191 229.557 514.906 232.705 518.316 234.841C521.747 236.977 525.577 238.045 529.804 238.045C534.031 238.045 537.85 236.977 541.259 234.841C544.691 232.705 547.406 229.557 549.406 225.398C551.429 221.239 552.441 216.136 552.441 210.091ZM621.878 245V175.182H630.333V237.5H662.787V245H621.878ZM768.736 175.182H777.191V221.409C777.191 226.182 776.066 230.443 773.816 234.193C771.589 237.92 768.441 240.864 764.373 243.023C760.305 245.159 755.532 246.227 750.055 246.227C744.577 246.227 739.805 245.159 735.736 243.023C731.668 240.864 728.509 237.92 726.259 234.193C724.032 230.443 722.918 226.182 722.918 221.409V175.182H731.373V220.727C731.373 224.136 732.123 227.17 733.623 229.83C735.123 232.466 737.259 234.545 740.032 236.068C742.827 237.568 746.168 238.318 750.055 238.318C753.941 238.318 757.282 237.568 760.077 236.068C762.873 234.545 765.009 232.466 766.486 229.83C767.986 227.17 768.736 224.136 768.736 220.727V175.182ZM837.296 182.682V175.182H889.66V182.682H867.705V245H859.251V182.682H837.296ZM958.203 175.182V245H949.748V175.182H958.203ZM1081.1 210.091C1081.1 217.455 1079.77 223.818 1077.11 229.182C1074.46 234.545 1070.81 238.682 1066.17 241.591C1061.54 244.5 1056.24 245.955 1050.29 245.955C1044.33 245.955 1039.04 244.5 1034.4 241.591C1029.76 238.682 1026.11 234.545 1023.46 229.182C1020.8 223.818 1019.47 217.455 1019.47 210.091C1019.47 202.727 1020.8 196.364 1023.46 191C1026.11 185.636 1029.76 181.5 1034.4 178.591C1039.04 175.682 1044.33 174.227 1050.29 174.227C1056.24 174.227 1061.54 175.682 1066.17 178.591C1070.81 181.5 1074.46 185.636 1077.11 191C1079.77 196.364 1081.1 202.727 1081.1 210.091ZM1072.92 210.091C1072.92 204.045 1071.91 198.943 1069.89 194.784C1067.89 190.625 1065.17 187.477 1061.74 185.341C1058.33 183.205 1054.51 182.136 1050.29 182.136C1046.06 182.136 1042.23 183.205 1038.8 185.341C1035.39 187.477 1032.67 190.625 1030.65 194.784C1028.65 198.943 1027.65 204.045 1027.65 210.091C1027.65 216.136 1028.65 221.239 1030.65 225.398C1032.67 229.557 1035.39 232.705 1038.8 234.841C1042.23 236.977 1046.06 238.045 1050.29 238.045C1054.51 238.045 1058.33 236.977 1061.74 234.841C1065.17 232.705 1067.89 229.557 1069.89 225.398C1071.91 221.239 1072.92 216.136 1072.92 210.091ZM1197.72 175.182V245H1189.54L1151.5 190.182H1150.81V245H1142.36V175.182H1150.54L1188.72 230.136H1189.41V175.182H1197.72Z" fill="white"/>
</svg>
