<svg width="159" height="28" viewBox="0 0 159 28" fill="none" xmlns="http://www.w3.org/2000/svg">
<g clip-path="url(#clip0_118_10)">
<path d="M8.91104 24.9486C9.37921 21.9124 8.35774 15.9523 0.696655 16.5739C1.24996 18.6172 3.7015 23.1873 8.91104 24.9486Z" fill="#014DFF"/>
<path d="M0.313657 10.2714C-0.265181 13.414 0.327844 15.7825 0.69671 16.5739C8.25564 15.9869 9.32252 21.9124 8.9111 24.9486C10.8859 25.6047 13.9617 25.3946 15.2528 25.2076C16.104 19.0777 13.1531 15.3652 11.8904 14.1997C8.00878 9.67565 2.55523 9.76775 0.313657 10.2714Z" fill="#196FFF"/>
<path d="M14.5292 25.2939C14.8357 25.2593 15.111 25.2219 15.2103 25.2076C16.6743 17.1265 10.5143 12.4586 7.25122 11.1347C14.8442 15.1753 15.267 22.2578 14.5292 25.2939Z" fill="#1353BF"/>
<path d="M4.86768 2.67377C1.9735 4.7113 0.625717 8.58781 0.313599 10.2714C6.37436 9.44254 10.5851 12.7463 11.9329 14.5018C16.2231 19.164 15.5364 25.0206 14.6568 27.3659C14.5207 27.9876 14.8838 27.9703 15.0825 27.884C18.896 26.4335 21.6936 23.1355 22.6158 21.6677C21.7986 14.7608 19.7216 12.0278 17.6362 9.408C13.9248 4.74584 7.53488 3.00472 4.86768 2.67377Z" fill="#3590FE"/>
<path d="M21.935 4.09832C15.3634 -2.56686 7.80455 0.371461 4.8678 2.67377C10.7924 3.84795 14.9833 6.84669 16.3169 8.1993C20.4709 11.4801 22.233 18.5597 22.6159 21.6677C27.3829 12.896 24.1624 6.2855 21.935 4.09832Z" fill="#4DB3FF"/>
<path d="M53.5099 4.86363C53.4728 4.48432 53.3137 4.18964 53.0325 3.97961C52.7512 3.76957 52.3695 3.66456 51.8873 3.66456C51.5597 3.66456 51.2831 3.71159 51.0574 3.80563C50.8318 3.89654 50.6587 4.0235 50.5382 4.18651C50.4207 4.34952 50.362 4.53447 50.362 4.74137C50.3559 4.91378 50.3913 5.06425 50.4687 5.19277C50.549 5.3213 50.6587 5.43259 50.7978 5.52663C50.9369 5.61754 51.0977 5.69748 51.2799 5.76644C51.4623 5.83228 51.657 5.8887 51.8641 5.93572L52.7172 6.14262C53.1313 6.23666 53.5116 6.36205 53.8577 6.5188C54.2038 6.67553 54.5036 6.86833 54.7571 7.09716C55.0105 7.326 55.2067 7.5956 55.3458 7.90594C55.4881 8.21629 55.5607 8.57208 55.5637 8.97334C55.5607 9.56268 55.4123 10.0737 55.1187 10.5063C54.8281 10.9357 54.4078 11.2696 53.8577 11.5078C53.3106 11.7429 52.6507 11.8605 51.878 11.8605C51.1116 11.8605 50.444 11.7414 49.8753 11.5031C49.3097 11.2649 48.8677 10.9122 48.5493 10.4451C48.2341 9.97491 48.0687 9.39341 48.0532 8.70061H49.9957C50.0174 9.0235 50.1086 9.29309 50.2694 9.50939C50.4331 9.72255 50.651 9.884 50.9229 9.99371C51.1981 10.1003 51.5087 10.1536 51.8549 10.1536C52.1949 10.1536 52.49 10.1034 52.7403 10.0031C52.9938 9.90281 53.1901 9.76331 53.3292 9.58462C53.4682 9.40594 53.5378 9.20061 53.5378 8.96863C53.5378 8.75233 53.4744 8.57052 53.3477 8.42319C53.2241 8.27585 53.0417 8.15045 52.8006 8.04701C52.5626 7.94356 52.2706 7.84952 51.9244 7.76488L50.8906 7.50156C50.09 7.30405 49.458 6.99528 48.9944 6.57523C48.5308 6.15516 48.3005 5.58932 48.3036 4.87772C48.3005 4.29466 48.4534 3.78525 48.7626 3.34952C49.0748 2.91378 49.5028 2.57365 50.0467 2.32914C50.5907 2.08462 51.2089 1.96237 51.9013 1.96237C52.6059 1.96237 53.2209 2.08462 53.7464 2.32914C54.2749 2.57365 54.686 2.91378 54.9796 3.34952C55.2732 3.78525 55.4247 4.28996 55.434 4.86363H53.5099ZM56.914 2.09403H59.3897L62.0044 8.56425H62.1157L64.7306 2.09403H67.2062V11.7241H65.259V5.4561H65.1803L62.723 11.6771H61.3971L58.94 5.43259H58.8612V11.7241H56.914V2.09403ZM70.4966 11.7241H68.3455L71.6232 2.09403H74.2102L77.4833 11.7241H75.3321L72.9538 4.29466H72.8797L70.4966 11.7241ZM70.3623 7.93885H75.4434V9.52819H70.3623V7.93885ZM78.6262 11.7241V2.09403H82.3721C83.0892 2.09403 83.7011 2.22412 84.208 2.48432C84.718 2.74137 85.1058 3.10657 85.3717 3.57992C85.6405 4.05014 85.775 4.60343 85.775 5.23979C85.775 5.8793 85.639 6.42945 85.367 6.89026C85.0951 7.34794 84.701 7.69905 84.1849 7.94356C83.6718 8.18807 83.0506 8.31033 82.3211 8.31033H79.813V6.67397H81.9966C82.3798 6.67397 82.6982 6.62068 82.9517 6.5141C83.205 6.4075 83.3937 6.24764 83.5173 6.03447C83.6439 5.8213 83.7073 5.55641 83.7073 5.23979C83.7073 4.92005 83.6439 4.65045 83.5173 4.43102C83.3937 4.21159 83.2035 4.04543 82.9469 3.93259C82.6936 3.81661 82.3737 3.75861 81.9874 3.75861H80.6336V11.7241H78.6262ZM83.7536 7.34168L86.1135 11.7241H83.8974L81.5886 7.34168H83.7536ZM86.8321 3.77272V2.09403H94.6299V3.77272H91.7232V11.7241H89.7389V3.77272H86.8321ZM107.313 5.4655H105.283C105.246 5.19905 105.17 4.96237 105.055 4.75548C104.941 4.54543 104.794 4.36676 104.615 4.21942C104.436 4.07208 104.229 3.95923 103.994 3.88087C103.762 3.8025 103.51 3.76331 103.238 3.76331C102.747 3.76331 102.319 3.88713 101.954 4.13479C101.589 4.3793 101.306 4.73666 101.105 5.20688C100.905 5.67397 100.804 6.24137 100.804 6.90908C100.804 7.5956 100.905 8.1724 101.105 8.63949C101.309 9.10656 101.594 9.45923 101.959 9.69748C102.323 9.93572 102.745 10.0548 103.224 10.0548C103.493 10.0548 103.742 10.0188 103.971 9.94669C104.202 9.87459 104.408 9.76957 104.587 9.63164C104.766 9.49058 104.915 9.31974 105.032 9.1191C105.153 8.91848 105.236 8.68964 105.283 8.43259L107.313 8.44199C107.261 8.884 107.129 9.31033 106.919 9.72099C106.712 10.1285 106.432 10.4937 106.08 10.8166C105.731 11.1363 105.314 11.3903 104.828 11.5784C104.346 11.7633 103.801 11.8558 103.192 11.8558C102.345 11.8558 101.588 11.6614 100.92 11.2727C100.256 10.884 99.7301 10.3213 99.3437 9.58462C98.9605 8.84794 98.7689 7.9561 98.7689 6.90908C98.7689 5.85892 98.9636 4.9655 99.3531 4.22883C99.7424 3.49215 100.271 2.93102 100.939 2.54543C101.606 2.15673 102.357 1.96237 103.192 1.96237C103.742 1.96237 104.252 2.04074 104.722 2.19748C105.195 2.35422 105.613 2.58306 105.978 2.884C106.343 3.18181 106.639 3.54701 106.868 3.97961C107.1 4.41221 107.248 4.9075 107.313 5.4655ZM108.753 11.7241V2.09403H115.151V3.77272H110.76V6.06738H114.821V7.74607H110.76V10.0454H115.169V11.7241H108.753ZM124.688 2.09403V11.7241H122.954L118.824 5.66299H118.754V11.7241H116.747V2.09403H118.508L122.607 8.15045H122.69V2.09403H124.688ZM125.985 3.77272V2.09403H133.783V3.77272H130.876V11.7241H128.892V3.77272H125.985ZM135.067 11.7241V2.09403H138.813C139.53 2.09403 140.142 2.22412 140.649 2.48432C141.159 2.74137 141.547 3.10657 141.813 3.57992C142.082 4.05014 142.216 4.60343 142.216 5.23979C142.216 5.8793 142.08 6.42945 141.808 6.89026C141.536 7.34794 141.142 7.69905 140.626 7.94356C140.113 8.18807 139.492 8.31033 138.762 8.31033H136.254V6.67397H138.438C138.821 6.67397 139.139 6.62068 139.393 6.5141C139.646 6.4075 139.835 6.24764 139.958 6.03447C140.085 5.8213 140.149 5.55641 140.149 5.23979C140.149 4.92005 140.085 4.65045 139.958 4.43102C139.835 4.21159 139.645 4.04543 139.388 3.93259C139.135 3.81661 138.815 3.75861 138.429 3.75861H137.075V11.7241H135.067ZM140.195 7.34168L142.555 11.7241H140.339L138.03 7.34168H140.195ZM145.271 11.7241H143.12L146.398 2.09403H148.985L152.258 11.7241H150.107L147.728 4.29466H147.655L145.271 11.7241ZM145.137 7.93885H150.218V9.52819H145.137V7.93885ZM153.4 11.7241V2.09403H155.409V10.0454H159.479V11.7241H153.4ZM53.8762 18.4325C53.8205 17.9561 53.5949 17.5862 53.1993 17.3229C52.8037 17.0596 52.3185 16.9278 51.7437 16.9278C51.3233 16.9278 50.9554 16.9968 50.6402 17.1347C50.328 17.2727 50.0839 17.4623 49.9078 17.7037C49.7346 17.9451 49.648 18.2194 49.648 18.5266C49.648 18.7837 49.7084 19.0047 49.8289 19.1896C49.9525 19.3714 50.1101 19.5234 50.3017 19.6458C50.4933 19.7648 50.6943 19.8636 50.9044 19.9421C51.1147 20.0172 51.3078 20.0783 51.4839 20.1254L52.4482 20.3887C52.6956 20.4545 52.9706 20.5455 53.2736 20.6614C53.5796 20.7774 53.8715 20.9357 54.1498 21.1364C54.431 21.3338 54.6627 21.5877 54.8451 21.8981C55.0275 22.2084 55.1187 22.5894 55.1187 23.0407C55.1187 23.5611 54.9842 24.0313 54.7154 24.4514C54.4495 24.8714 54.0602 25.2054 53.5471 25.453C53.0371 25.7007 52.4174 25.8244 51.6879 25.8244C51.0079 25.8244 50.4192 25.7131 49.9216 25.4906C49.427 25.268 49.0377 24.9576 48.7533 24.5596C48.4721 24.1614 48.3128 23.699 48.2758 23.1724H49.4627C49.4935 23.536 49.614 23.837 49.8243 24.0752C50.0375 24.3103 50.3064 24.4859 50.631 24.6019C50.9586 24.7147 51.3109 24.7712 51.6879 24.7712C52.1269 24.7712 52.5209 24.699 52.8702 24.5549C53.2195 24.4076 53.4961 24.2037 53.7001 23.9436C53.904 23.6803 54.006 23.3731 54.006 23.0219C54.006 22.7022 53.9179 22.4421 53.7418 22.2414C53.5656 22.0407 53.3338 21.8778 53.0463 21.7524C52.7588 21.6269 52.4482 21.5172 52.1145 21.4232L50.9462 21.0847C50.2044 20.8683 49.6171 20.5596 49.1844 20.1583C48.7518 19.7571 48.5355 19.232 48.5355 18.583C48.5355 18.0438 48.6791 17.5736 48.9666 17.1724C49.257 16.768 49.6465 16.4545 50.1349 16.232C50.6263 16.0062 51.1749 15.8934 51.7806 15.8934C52.3926 15.8934 52.9366 16.0047 53.4126 16.2273C53.8885 16.4467 54.2656 16.7476 54.5438 17.1301C54.8251 17.5125 54.9735 17.9467 54.9889 18.4325H53.8762ZM71.4173 20.8401C71.4173 21.8558 71.2366 22.7335 70.875 23.4734C70.5134 24.2131 70.0173 24.7837 69.3868 25.185C68.7562 25.5862 68.0361 25.7869 67.2263 25.7869C66.4166 25.7869 65.6964 25.5862 65.0659 25.185C64.4353 24.7837 63.9394 24.2131 63.5777 23.4734C63.2161 22.7335 63.0353 21.8558 63.0353 20.8401C63.0353 19.8244 63.2161 18.9467 63.5777 18.2069C63.9394 17.467 64.4353 16.8965 65.0659 16.4953C65.6964 16.0941 66.4166 15.8934 67.2263 15.8934C68.0361 15.8934 68.7562 16.0941 69.3868 16.4953C70.0173 16.8965 70.5134 17.467 70.875 18.2069C71.2366 18.9467 71.4173 19.8244 71.4173 20.8401ZM70.3048 20.8401C70.3048 20.0062 70.1671 19.3025 69.892 18.7288C69.62 18.1552 69.2508 17.721 68.7841 17.4263C68.3205 17.1317 67.8011 16.9843 67.2263 16.9843C66.6515 16.9843 66.1306 17.1317 65.664 17.4263C65.2003 17.721 64.8311 18.1552 64.5559 18.7288C64.284 19.3025 64.148 20.0062 64.148 20.8401C64.148 21.6739 64.284 22.3778 64.5559 22.9514C64.8311 23.5251 65.2003 23.9593 65.664 24.2539C66.1306 24.5485 66.6515 24.6958 67.2263 24.6958C67.8011 24.6958 68.3205 24.5485 68.7841 24.2539C69.2508 23.9593 69.62 23.5251 69.892 22.9514C70.1671 22.3778 70.3048 21.6739 70.3048 20.8401ZM79.7477 25.6552V16.0251H80.8975V24.6207H85.311V25.6552H79.7477ZM99.7193 16.0251H100.869V22.4012C100.869 23.0596 100.716 23.6473 100.41 24.1645C100.107 24.6786 99.6792 25.0847 99.126 25.3825C98.5728 25.6771 97.9237 25.8244 97.1788 25.8244C96.4339 25.8244 95.7849 25.6771 95.2316 25.3825C94.6783 25.0847 94.2487 24.6786 93.9427 24.1645C93.6399 23.6473 93.4884 23.0596 93.4884 22.4012V16.0251H94.6382V22.3072C94.6382 22.7774 94.7402 23.1958 94.9442 23.5627C95.1482 23.9263 95.4387 24.2131 95.8158 24.4232C96.1959 24.6301 96.6502 24.7335 97.1788 24.7335C97.7073 24.7335 98.1617 24.6301 98.5418 24.4232C98.922 24.2131 99.2125 23.9263 99.4133 23.5627C99.6173 23.1958 99.7193 22.7774 99.7193 22.3072V16.0251ZM109.043 17.0596V16.0251H116.164V17.0596H113.178V25.6552H112.029V17.0596H109.043ZM125.485 16.0251V25.6552H124.336V16.0251H125.485ZM142.199 20.8401C142.199 21.8558 142.018 22.7335 141.657 23.4734C141.295 24.2131 140.799 24.7837 140.168 25.185C139.538 25.5862 138.818 25.7869 138.008 25.7869C137.198 25.7869 136.478 25.5862 135.848 25.185C135.217 24.7837 134.721 24.2131 134.359 23.4734C133.998 22.7335 133.817 21.8558 133.817 20.8401C133.817 19.8244 133.998 18.9467 134.359 18.2069C134.721 17.467 135.217 16.8965 135.848 16.4953C136.478 16.0941 137.198 15.8934 138.008 15.8934C138.818 15.8934 139.538 16.0941 140.168 16.4953C140.799 16.8965 141.295 17.467 141.657 18.2069C142.018 18.9467 142.199 19.8244 142.199 20.8401ZM141.086 20.8401C141.086 20.0062 140.949 19.3025 140.674 18.7288C140.402 18.1552 140.032 17.721 139.566 17.4263C139.102 17.1317 138.583 16.9843 138.008 16.9843C137.433 16.9843 136.912 17.1317 136.446 17.4263C135.982 17.721 135.613 18.1552 135.338 18.7288C135.066 19.3025 134.93 20.0062 134.93 20.8401C134.93 21.6739 135.066 22.3778 135.338 22.9514C135.613 23.5251 135.982 23.9593 136.446 24.2539C136.912 24.5485 137.433 24.6958 138.008 24.6958C138.583 24.6958 139.102 24.5485 139.566 24.2539C140.032 23.9593 140.402 23.5251 140.674 22.9514C140.949 22.3778 141.086 21.6739 141.086 20.8401ZM158.058 16.0251V25.6552H156.946L151.772 18.0941H151.679V25.6552H150.529V16.0251H151.642L156.834 23.605H156.928V16.0251H158.058Z" fill="#161616"/>
</g>
<defs>
<clipPath id="clip0_118_10">
<rect width="159" height="28" fill="white"/>
</clipPath>
</defs>
</svg>
