<svg width="264" height="48" viewBox="0 0 1103 203" fill="none" xmlns="http://www.w3.org/2000/svg">
<path d="M65.5263 180.877C68.9689 158.865 61.4577 115.654 5.12317 120.161C9.19177 134.975 27.2188 168.108 65.5263 180.877Z" fill="#014DFF"/>
<path d="M2.30646 74.4674C-1.94993 97.2516 2.41078 114.423 5.12318 120.161C60.7065 115.905 68.5516 158.865 65.5263 180.877C80.048 185.634 102.665 184.111 112.159 182.755C118.418 138.313 96.7189 111.398 87.4341 102.948C58.8913 70.1484 18.7895 70.8161 2.30646 74.4674Z" fill="#196FFF"/>
<path d="M106.838 183.381C109.092 183.13 111.116 182.859 111.846 182.755C122.612 124.167 77.3149 90.3245 53.3206 80.7268C109.154 110.021 112.263 161.369 106.838 183.381Z" fill="#1353BF"/>
<path d="M35.7941 19.3848C14.5122 34.1569 4.60151 62.2616 2.3064 74.4674C46.8732 68.4584 77.8363 92.411 87.747 105.138C119.294 138.939 114.245 181.399 107.777 198.403C106.776 202.91 109.446 202.785 110.907 202.159C138.949 191.643 159.521 167.732 166.302 157.091C160.293 107.016 145.02 87.2015 129.685 68.208C102.394 34.4073 55.4069 21.7842 35.7941 19.3848Z" fill="#3590FE"/>
<path d="M161.295 29.7128C112.972 -18.6097 57.3891 2.69309 35.7942 19.3848C79.3595 27.8976 110.177 49.6385 119.983 59.4449C150.529 83.2305 163.486 134.558 166.302 157.091C201.355 93.4959 177.674 45.5699 161.295 29.7128Z" fill="#4DB3FF"/>
<path d="M319.943 35.2614C319.67 32.5114 318.5 30.375 316.432 28.8523C314.364 27.3295 311.557 26.5682 308.011 26.5682C305.602 26.5682 303.568 26.9091 301.909 27.5909C300.25 28.25 298.977 29.1705 298.091 30.3523C297.227 31.5341 296.795 32.875 296.795 34.375C296.75 35.625 297.011 36.7159 297.58 37.6477C298.17 38.5795 298.977 39.3864 300 40.0682C301.023 40.7273 302.205 41.3068 303.545 41.8068C304.886 42.2841 306.318 42.6932 307.841 43.0341L314.114 44.5341C317.159 45.2159 319.955 46.125 322.5 47.2614C325.045 48.3977 327.25 49.7955 329.114 51.4545C330.977 53.1136 332.42 55.0682 333.443 57.3182C334.489 59.5682 335.023 62.1477 335.045 65.0568C335.023 69.3295 333.932 73.0341 331.773 76.1705C329.636 79.2841 326.545 81.7045 322.5 83.4318C318.477 85.1364 313.625 85.9886 307.943 85.9886C302.307 85.9886 297.398 85.125 293.216 83.3977C289.057 81.6705 285.807 79.1136 283.466 75.7273C281.148 72.3182 279.932 68.1023 279.818 63.0795H294.102C294.261 65.4205 294.932 67.375 296.114 68.9432C297.318 70.4886 298.92 71.6591 300.92 72.4545C302.943 73.2273 305.227 73.6136 307.773 73.6136C310.273 73.6136 312.443 73.25 314.284 72.5227C316.148 71.7955 317.591 70.7841 318.614 69.4886C319.636 68.1932 320.148 66.7045 320.148 65.0227C320.148 63.4545 319.682 62.1364 318.75 61.0682C317.841 60 316.5 59.0909 314.727 58.3409C312.977 57.5909 310.83 56.9091 308.284 56.2955L300.682 54.3864C294.795 52.9545 290.148 50.7159 286.739 47.6705C283.33 44.625 281.636 40.5227 281.659 35.3636C281.636 31.1364 282.761 27.4432 285.034 24.2841C287.33 21.125 290.477 18.6591 294.477 16.8864C298.477 15.1136 303.023 14.2273 308.114 14.2273C313.295 14.2273 317.818 15.1136 321.682 16.8864C325.568 18.6591 328.591 21.125 330.75 24.2841C332.909 27.4432 334.023 31.1023 334.091 35.2614H319.943ZM344.974 15.1818H363.179L382.406 62.0909H383.224L402.452 15.1818H420.656V85H406.338V39.5568H405.759L387.69 84.6591H377.94L359.872 39.3864H359.293V85H344.974V15.1818ZM444.852 85H429.034L453.136 15.1818H472.159L496.227 85H480.409L462.92 31.1364H462.375L444.852 85ZM443.864 57.5568H481.227V69.0795H443.864V57.5568ZM504.631 85V15.1818H532.176C537.449 15.1818 541.949 16.125 545.676 18.0114C549.426 19.875 552.278 22.5227 554.233 25.9545C556.21 29.3636 557.199 33.375 557.199 37.9886C557.199 42.625 556.199 46.6136 554.199 49.9545C552.199 53.2727 549.301 55.8182 545.506 57.5909C541.733 59.3636 537.165 60.25 531.801 60.25H513.358V48.3864H529.415C532.233 48.3864 534.574 48 536.438 47.2273C538.301 46.4545 539.688 45.2955 540.597 43.75C541.528 42.2045 541.994 40.2841 541.994 37.9886C541.994 35.6705 541.528 33.7159 540.597 32.125C539.688 30.5341 538.29 29.3295 536.403 28.5114C534.54 27.6705 532.188 27.25 529.347 27.25H519.392V85H504.631ZM542.335 53.2273L559.688 85H543.392L526.415 53.2273H542.335ZM564.972 27.3523V15.1818H622.312V27.3523H600.938V85H586.347V27.3523H564.972ZM715.577 39.625H700.645C700.372 37.6932 699.815 35.9773 698.974 34.4773C698.134 32.9545 697.054 31.6591 695.736 30.5909C694.418 29.5227 692.895 28.7045 691.168 28.1364C689.463 27.5682 687.611 27.2841 685.611 27.2841C681.997 27.2841 678.849 28.1818 676.168 29.9773C673.486 31.75 671.406 34.3409 669.929 37.75C668.452 41.1364 667.713 45.25 667.713 50.0909C667.713 55.0682 668.452 59.25 669.929 62.6364C671.429 66.0227 673.52 68.5795 676.202 70.3068C678.884 72.0341 681.986 72.8977 685.509 72.8977C687.486 72.8977 689.315 72.6364 690.997 72.1136C692.702 71.5909 694.213 70.8295 695.531 69.8295C696.849 68.8068 697.94 67.5682 698.804 66.1136C699.69 64.6591 700.304 63 700.645 61.1364L715.577 61.2045C715.19 64.4091 714.224 67.5 712.679 70.4773C711.156 73.4318 709.099 76.0795 706.509 78.4205C703.94 80.7386 700.872 82.5795 697.304 83.9432C693.759 85.2841 689.747 85.9545 685.27 85.9545C679.043 85.9545 673.474 84.5455 668.565 81.7273C663.679 78.9091 659.815 74.8295 656.974 69.4886C654.156 64.1477 652.747 57.6818 652.747 50.0909C652.747 42.4773 654.179 36 657.043 30.6591C659.906 25.3182 663.793 21.25 668.702 18.4545C673.611 15.6364 679.134 14.2273 685.27 14.2273C689.315 14.2273 693.065 14.7955 696.52 15.9318C699.997 17.0682 703.077 18.7273 705.759 20.9091C708.44 23.0682 710.622 25.7159 712.304 28.8523C714.009 31.9886 715.099 35.5795 715.577 39.625ZM726.162 85V15.1818H773.207V27.3523H740.923V43.9886H770.787V56.1591H740.923V72.8295H773.344V85H726.162ZM843.341 15.1818V85H830.591L800.216 41.0568H799.705V85H784.943V15.1818H797.898L828.034 59.0909H828.648V15.1818H843.341ZM852.878 27.3523V15.1818H910.219V27.3523H888.844V85H874.253V27.3523H852.878ZM919.662 85V15.1818H947.207C952.48 15.1818 956.98 16.125 960.707 18.0114C964.457 19.875 967.31 22.5227 969.264 25.9545C971.241 29.3636 972.23 33.375 972.23 37.9886C972.23 42.625 971.23 46.6136 969.23 49.9545C967.23 53.2727 964.332 55.8182 960.537 57.5909C956.764 59.3636 952.196 60.25 946.832 60.25H928.389V48.3864H944.446C947.264 48.3864 949.605 48 951.469 47.2273C953.332 46.4545 954.719 45.2955 955.628 43.75C956.56 42.2045 957.026 40.2841 957.026 37.9886C957.026 35.6705 956.56 33.7159 955.628 32.125C954.719 30.5341 953.321 29.3295 951.435 28.5114C949.571 27.6705 947.219 27.25 944.378 27.25H934.423V85H919.662ZM957.366 53.2273L974.719 85H958.423L941.446 53.2273H957.366ZM994.696 85H978.878L1002.98 15.1818H1022L1046.07 85H1030.25L1012.76 31.1364H1012.22L994.696 85ZM993.707 57.5568H1031.07V69.0795H993.707V57.5568ZM1054.47 85V15.1818H1069.24V72.8295H1099.17V85H1054.47ZM322.636 133.636C322.227 130.182 320.568 127.5 317.659 125.591C314.75 123.682 311.182 122.727 306.955 122.727C303.864 122.727 301.159 123.227 298.841 124.227C296.545 125.227 294.75 126.602 293.455 128.352C292.182 130.102 291.545 132.091 291.545 134.318C291.545 136.182 291.989 137.784 292.875 139.125C293.784 140.443 294.943 141.545 296.352 142.432C297.761 143.295 299.239 144.011 300.784 144.58C302.33 145.125 303.75 145.568 305.045 145.909L312.136 147.818C313.955 148.295 315.977 148.955 318.205 149.795C320.455 150.636 322.602 151.784 324.648 153.239C326.716 154.67 328.42 156.511 329.761 158.761C331.102 161.011 331.773 163.773 331.773 167.045C331.773 170.818 330.784 174.227 328.807 177.273C326.852 180.318 323.989 182.739 320.216 184.534C316.466 186.33 311.909 187.227 306.545 187.227C301.545 187.227 297.216 186.42 293.557 184.807C289.92 183.193 287.057 180.943 284.966 178.057C282.898 175.17 281.727 171.818 281.455 168H290.182C290.409 170.636 291.295 172.818 292.841 174.545C294.409 176.25 296.386 177.523 298.773 178.364C301.182 179.182 303.773 179.591 306.545 179.591C309.773 179.591 312.67 179.068 315.239 178.023C317.807 176.955 319.841 175.477 321.341 173.591C322.841 171.682 323.591 169.455 323.591 166.909C323.591 164.591 322.943 162.705 321.648 161.25C320.352 159.795 318.648 158.614 316.534 157.705C314.42 156.795 312.136 156 309.682 155.318L301.091 152.864C295.636 151.295 291.318 149.057 288.136 146.148C284.955 143.239 283.364 139.432 283.364 134.727C283.364 130.818 284.42 127.409 286.534 124.5C288.67 121.568 291.534 119.295 295.125 117.682C298.739 116.045 302.773 115.227 307.227 115.227C311.727 115.227 315.727 116.034 319.227 117.648C322.727 119.239 325.5 121.42 327.545 124.193C329.614 126.966 330.705 130.114 330.818 133.636H322.636ZM451.622 151.091C451.622 158.455 450.293 164.818 447.634 170.182C444.975 175.545 441.327 179.682 436.691 182.591C432.054 185.5 426.759 186.955 420.804 186.955C414.85 186.955 409.554 185.5 404.918 182.591C400.281 179.682 396.634 175.545 393.975 170.182C391.316 164.818 389.986 158.455 389.986 151.091C389.986 143.727 391.316 137.364 393.975 132C396.634 126.636 400.281 122.5 404.918 119.591C409.554 116.682 414.85 115.227 420.804 115.227C426.759 115.227 432.054 116.682 436.691 119.591C441.327 122.5 444.975 126.636 447.634 132C450.293 137.364 451.622 143.727 451.622 151.091ZM443.441 151.091C443.441 145.045 442.429 139.943 440.406 135.784C438.406 131.625 435.691 128.477 432.259 126.341C428.85 124.205 425.031 123.136 420.804 123.136C416.577 123.136 412.747 124.205 409.316 126.341C405.906 128.477 403.191 131.625 401.168 135.784C399.168 139.943 398.168 145.045 398.168 151.091C398.168 157.136 399.168 162.239 401.168 166.398C403.191 170.557 405.906 173.705 409.316 175.841C412.747 177.977 416.577 179.045 420.804 179.045C425.031 179.045 428.85 177.977 432.259 175.841C435.691 173.705 438.406 170.557 440.406 166.398C442.429 162.239 443.441 157.136 443.441 151.091ZM512.878 186V116.182H521.333V178.5H553.787V186H512.878ZM659.736 116.182H668.191V162.409C668.191 167.182 667.066 171.443 664.816 175.193C662.589 178.92 659.441 181.864 655.373 184.023C651.305 186.159 646.532 187.227 641.055 187.227C635.577 187.227 630.805 186.159 626.736 184.023C622.668 181.864 619.509 178.92 617.259 175.193C615.032 171.443 613.918 167.182 613.918 162.409V116.182H622.373V161.727C622.373 165.136 623.123 168.17 624.623 170.83C626.123 173.466 628.259 175.545 631.032 177.068C633.827 178.568 637.168 179.318 641.055 179.318C644.941 179.318 648.282 178.568 651.077 177.068C653.873 175.545 656.009 173.466 657.486 170.83C658.986 168.17 659.736 165.136 659.736 161.727V116.182ZM728.296 123.682V116.182H780.66V123.682H758.705V186H750.251V123.682H728.296ZM849.203 116.182V186H840.748V116.182H849.203ZM972.104 151.091C972.104 158.455 970.774 164.818 968.115 170.182C965.456 175.545 961.808 179.682 957.172 182.591C952.535 185.5 947.24 186.955 941.285 186.955C935.331 186.955 930.035 185.5 925.399 182.591C920.763 179.682 917.115 175.545 914.456 170.182C911.797 164.818 910.467 158.455 910.467 151.091C910.467 143.727 911.797 137.364 914.456 132C917.115 126.636 920.763 122.5 925.399 119.591C930.035 116.682 935.331 115.227 941.285 115.227C947.24 115.227 952.535 116.682 957.172 119.591C961.808 122.5 965.456 126.636 968.115 132C970.774 137.364 972.104 143.727 972.104 151.091ZM963.922 151.091C963.922 145.045 962.91 139.943 960.888 135.784C958.888 131.625 956.172 128.477 952.74 126.341C949.331 124.205 945.513 123.136 941.285 123.136C937.058 123.136 933.229 124.205 929.797 126.341C926.388 128.477 923.672 131.625 921.649 135.784C919.649 139.943 918.649 145.045 918.649 151.091C918.649 157.136 919.649 162.239 921.649 166.398C923.672 170.557 926.388 173.705 929.797 175.841C933.229 177.977 937.058 179.045 941.285 179.045C945.513 179.045 949.331 177.977 952.74 175.841C956.172 173.705 958.888 170.557 960.888 166.398C962.91 162.239 963.922 157.136 963.922 151.091ZM1088.72 116.182V186H1080.54L1042.5 131.182H1041.81V186H1033.36V116.182H1041.54L1079.72 171.136H1080.41V116.182H1088.72Z" fill="#161616"/>
</svg>
